<?xml version="1.0" encoding="utf-8"?><svg fill="none" xmlns:xlink="http://www.w3.org/1999/xlink" viewBox="0 0 400 400" xmlns="http://www.w3.org/2000/svg"><defs><clipPath id="cp-400-400"><rect height="400" width="400" y="0" x="0" /></clipPath><g id="comp_0"><g id="Null 162"><g transform="translate(200,200)"><animateTransform repeatCount="indefinite" type="translate" attributeName="transform" dur="1s" begin="0s" calcMode="spline" values="200 200; 200 210; 200 200" keyTimes="0; 0.5; 1" keySplines="0.333 0 0.667 1; 0.333 0 0.667 1" fill="freeze" /><g transform="scale(1,1) translate(-50,-50)"><g id="MAp"><g transform="translate(-207.757,-33.323)"><animateTransform repeatCount="indefinite" type="translate" attributeName="transform" dur="1.64s" begin="0s" calcMode="spline" values="-207.757 -33.323; 308.243 -33.323" keyTimes="0; 1" keySplines="0.333 0 0.667 1" fill="freeze" /><g transform="scale(1,1) translate(-258.243,43.323)"><g id="Group 5"><g id="Group 3"><g id="Group 1"><path stroke-linejoin="round" stroke-linecap="round" stroke-width="3.722" stroke-opacity="1" stroke="#000000" fill="#7dd4c8" fill-opacity="1" d="M-58.967,-51.228C-58.394,-50.244,-57.683,-49.348,-56.854,-48.568L-51.625,-43.636C-50.688,-42.757,-49.55,-42.12,-48.312,-41.779L-47.703,-41.613C-44.104,-40.622,-41.287,-37.813,-40.282,-34.213L-37.477,-24.081C-37.14,-22.865,-36.572,-21.725,-35.807,-20.723L-27.312,-9.566C-26.253,-8.173,-25.549,-6.543,-25.261,-4.816L-22.951,9.057C-22.878,9.553,-22.624,10.005,-22.238,10.325C-21.676,10.779,-20.909,10.888,-20.244,10.605C-18.91,10.044,-17.994,8.792,-17.861,7.35C-17.58,4.515,-16.447,1.831,-14.611,-0.345L-12.151,-3.31C-11.715,-3.833,-11.388,-4.438,-11.19,-5.09L-8.658,-13.307C-7.913,-15.733,-6.432,-17.868,-4.421,-19.414L3.102,-25.199C3.652,-25.605,4.025,-26.207,4.146,-26.881C4.268,-27.626,4.056,-28.387,3.567,-28.961L-1.445,-34.865C-1.745,-35.217,-2.028,-35.579,-2.297,-35.957L-6.126,-41.302C-8.245,-44.257,-11.629,-46.218,-15.267,-46.125C-15.632,-46.114,-15.992,-46.208,-16.306,-46.394L-24.129,-51.098C-26.419,-52.466,-29.258,-52.535,-31.612,-51.279L-35.73,-49.07C-39.474,-47.062,-44.131,-48.288,-46.406,-51.88L-50.41,-58.213C-52.264,-61.145,-52.205,-64.899,-50.26,-67.771C-48.186,-70.86,-44.546,-72.507,-40.861,-72.025L-34.852,-71.264C-32.711,-70.969,-30.601,-71.981,-29.488,-73.836C-27.573,-77.143,-23.864,-78.977,-20.078,-78.488L-17.453,-78.151C-15.578,-77.916,-13.718,-78.689,-12.56,-80.185L-10.245,-83.197C-8.148,-85.903,-8.053,-89.662,-10.012,-92.47L-14.999,-99.673C-16.897,-102.415,-19.368,-104.709,-22.238,-106.404C-25.201,-105.354,-28.119,-104.102,-30.959,-102.614C-48.939,-93.185,-61.545,-76.158,-65.518,-56.466C-62.821,-55.608,-60.453,-53.796,-58.967,-51.228Z" /></g></g><g id="Group 2"><g id="Group 1"><path stroke-linejoin="round" stroke-linecap="round" stroke-width="3.722" stroke-opacity="1" stroke="#000000" fill="#7dd4c8" fill-opacity="1" d="M58.882,-11.068C57.556,-10.689,56.176,-10.498,54.782,-10.522L50.933,-10.556C50.253,-10.564,49.577,-10.435,48.948,-10.177L40.99,-6.946C38.642,-5.99,36.053,-5.789,33.586,-6.372L24.354,-8.552C23.692,-8.722,22.99,-8.63,22.393,-8.298C21.74,-7.922,21.284,-7.277,21.149,-6.534L19.75,1.088C19.667,1.543,19.567,1.993,19.445,2.44L17.73,8.79C16.783,12.302,17.406,16.168,19.778,18.932C20.017,19.208,20.173,19.546,20.227,19.907L20.345,20.723C36.526,15.569,50.5,4.337,58.882,-11.068Z" /></g></g><g id="Group 1"><g id="Group 1"><path stroke-linejoin="round" stroke-linecap="round" stroke-width="3.722" stroke-opacity="1" stroke="#000000" fill="#7dd4c8" fill-opacity="1" d="M42.619,-94.999C35.63,-100.746,27.704,-104.861,19.37,-107.37C16.788,-101.966,13.126,-95.681,10.588,-93.352L8.253,-91.209C4.727,-87.972,4.485,-82.489,7.732,-78.936C9.183,-77.346,11.383,-76.696,13.476,-77.15L20.304,-78.704C28.078,-80.465,33.208,-70.817,27.404,-65.364C25.297,-63.362,24.938,-60.154,26.931,-57.982L34.117,-50.13C36.054,-48.032,39.342,-47.887,41.469,-49.832L43.923,-52.078C50.448,-58.03,60.499,-57.596,66.478,-51.081L66.602,-50.945C64.625,-68.092,56.095,-83.913,42.619,-94.999Z" /></g></g></g><g id="Group 4"><g id="Group 3"><g id="Group 1"><path stroke-linejoin="round" stroke-linecap="round" stroke-width="3.722" stroke-opacity="1" stroke="#000000" fill="#7dd4c8" fill-opacity="1" d="M69.883,-51.228C70.456,-50.244,71.167,-49.348,71.996,-48.568L77.225,-43.636C78.162,-42.757,79.3,-42.12,80.538,-41.779L81.147,-41.613C84.746,-40.622,87.563,-37.813,88.568,-34.213L91.374,-24.081C91.711,-22.865,92.278,-21.725,93.043,-20.723L101.538,-9.566C102.597,-8.173,103.301,-6.543,103.589,-4.816L105.899,9.057C105.972,9.553,106.226,10.005,106.612,10.325C107.174,10.779,107.942,10.888,108.607,10.605C109.941,10.044,110.856,8.792,110.989,7.35C111.27,4.515,112.403,1.831,114.239,-0.345L116.699,-3.31C117.135,-3.833,117.462,-4.438,117.66,-5.09L120.192,-13.307C120.937,-15.733,122.418,-17.868,124.429,-19.414L131.953,-25.199C132.503,-25.605,132.875,-26.207,132.996,-26.881C133.118,-27.626,132.907,-28.387,132.418,-28.961L127.405,-34.865C127.105,-35.217,126.822,-35.579,126.553,-35.957L122.724,-41.302C120.605,-44.257,117.221,-46.218,113.583,-46.125C113.218,-46.114,112.858,-46.208,112.544,-46.394L104.721,-51.098C102.431,-52.466,99.592,-52.535,97.238,-51.279L93.12,-49.07C89.376,-47.062,84.719,-48.288,82.444,-51.88L78.44,-58.213C76.586,-61.145,76.645,-64.899,78.59,-67.771C80.664,-70.86,84.304,-72.507,87.989,-72.025L93.999,-71.264C96.14,-70.969,98.249,-71.981,99.362,-73.836C101.277,-77.143,104.986,-78.977,108.772,-78.488L111.397,-78.151C113.272,-77.916,115.132,-78.689,116.29,-80.185L118.605,-83.197C120.702,-85.903,120.797,-89.662,118.838,-92.47L113.852,-99.673C111.954,-102.415,109.482,-104.709,106.612,-106.404C103.649,-105.354,100.732,-104.102,97.892,-102.614C79.912,-93.185,67.306,-76.158,63.333,-56.466C66.03,-55.608,68.397,-53.796,69.883,-51.228Z" /></g></g><g id="Group 2"><g id="Group 1"><path stroke-linejoin="round" stroke-linecap="round" stroke-width="3.722" stroke-opacity="1" stroke="#000000" fill="#7dd4c8" fill-opacity="1" d="M187.732,-11.068C186.406,-10.689,185.026,-10.498,183.632,-10.522L179.783,-10.556C179.103,-10.564,178.427,-10.435,177.798,-10.177L169.84,-6.946C167.492,-5.99,164.904,-5.789,162.437,-6.372L153.204,-8.552C152.542,-8.722,151.84,-8.63,151.243,-8.298C150.59,-7.922,150.134,-7.277,149.999,-6.534L148.6,1.088C148.517,1.543,148.417,1.993,148.295,2.44L146.58,8.79C145.633,12.302,146.256,16.168,148.628,18.932C148.867,19.208,149.023,19.546,149.077,19.907L149.195,20.723C165.376,15.569,179.35,4.337,187.732,-11.068Z" /></g></g><g id="Group 1"><g id="Group 1"><path stroke-linejoin="round" stroke-linecap="round" stroke-width="3.722" stroke-opacity="1" stroke="#000000" fill="#7dd4c8" fill-opacity="1" d="M171.469,-94.999C164.48,-100.746,156.555,-104.861,148.221,-107.37C145.639,-101.966,141.976,-95.681,139.438,-93.352L137.103,-91.209C133.577,-87.972,133.335,-82.489,136.582,-78.936C138.033,-77.346,140.233,-76.696,142.326,-77.15L149.154,-78.704C156.928,-80.465,162.058,-70.817,156.254,-65.364C154.147,-63.362,153.788,-60.154,155.781,-57.982L162.967,-50.13C164.903,-48.032,168.192,-47.887,170.319,-49.832L172.773,-52.078C179.298,-58.03,189.349,-57.596,195.328,-51.081L195.452,-50.945C193.475,-68.092,184.945,-83.913,171.469,-94.999Z" /></g></g></g><g id="Group 3"><g id="Group 3"><g id="Group 1"><path stroke-linejoin="round" stroke-linecap="round" stroke-width="3.722" stroke-opacity="1" stroke="#000000" fill="#7dd4c8" fill-opacity="1" d="M198.733,-51.228C199.306,-50.244,200.017,-49.348,200.846,-48.568L206.075,-43.636C207.012,-42.757,208.15,-42.12,209.388,-41.779L209.997,-41.613C213.596,-40.622,216.413,-37.813,217.418,-34.213L220.224,-24.081C220.561,-22.865,221.128,-21.725,221.893,-20.723L230.388,-9.566C231.447,-8.173,232.151,-6.543,232.439,-4.816L234.749,9.057C234.822,9.553,235.076,10.005,235.462,10.325C236.024,10.779,236.792,10.888,237.457,10.605C238.791,10.044,239.706,8.792,239.839,7.35C240.12,4.515,241.253,1.831,243.089,-0.345L245.549,-3.31C245.985,-3.833,246.312,-4.438,246.51,-5.09L249.042,-13.307C249.787,-15.733,251.268,-17.868,253.279,-19.414L260.803,-25.199C261.353,-25.605,261.725,-26.207,261.846,-26.881C261.968,-27.626,261.757,-28.387,261.268,-28.961L256.255,-34.865C255.955,-35.217,255.672,-35.579,255.403,-35.957L251.574,-41.302C249.455,-44.257,246.071,-46.218,242.433,-46.125C242.068,-46.114,241.708,-46.208,241.394,-46.394L233.571,-51.098C231.281,-52.466,228.443,-52.535,226.089,-51.279L221.97,-49.07C218.226,-47.062,213.569,-48.288,211.294,-51.88L207.29,-58.213C205.436,-61.145,205.495,-64.899,207.44,-67.771C209.514,-70.86,213.154,-72.507,216.839,-72.025L222.849,-71.264C224.99,-70.969,227.099,-71.981,228.212,-73.836C230.127,-77.143,233.836,-78.977,237.622,-78.488L240.247,-78.151C242.122,-77.916,243.983,-78.689,245.141,-80.185L247.455,-83.197C249.552,-85.903,249.647,-89.662,247.688,-92.47L242.702,-99.673C240.804,-102.415,238.332,-104.709,235.462,-106.404C232.499,-105.354,229.582,-104.102,226.742,-102.614C208.762,-93.185,196.156,-76.158,192.183,-56.466C194.88,-55.608,197.247,-53.796,198.733,-51.228Z" /></g></g><g id="Group 2"><g id="Group 1"><path stroke-linejoin="round" stroke-linecap="round" stroke-width="3.722" stroke-opacity="1" stroke="#000000" fill="#7dd4c8" fill-opacity="1" d="M316.582,-11.068C315.256,-10.689,313.876,-10.498,312.482,-10.522L308.633,-10.556C307.953,-10.564,307.277,-10.435,306.648,-10.177L298.69,-6.946C296.342,-5.99,293.754,-5.789,291.287,-6.372L282.054,-8.552C281.392,-8.722,280.69,-8.63,280.093,-8.298C279.44,-7.922,278.984,-7.277,278.849,-6.534L277.45,1.088C277.367,1.543,277.267,1.993,277.145,2.44L275.43,8.79C274.483,12.302,275.106,16.168,277.478,18.932C277.717,19.208,277.873,19.546,277.927,19.907L278.045,20.723C294.226,15.569,308.2,4.337,316.582,-11.068Z" /></g></g><g id="Group 1"><g id="Group 1"><path stroke-linejoin="round" stroke-linecap="round" stroke-width="3.722" stroke-opacity="1" stroke="#000000" fill="#7dd4c8" fill-opacity="1" d="M300.319,-94.999C293.33,-100.746,285.405,-104.861,277.071,-107.37C274.489,-101.966,270.827,-95.681,268.289,-93.352L265.953,-91.209C262.427,-87.972,262.185,-82.489,265.432,-78.936C266.883,-77.346,269.083,-76.696,271.176,-77.15L278.004,-78.704C285.778,-80.465,290.908,-70.817,285.104,-65.364C282.997,-63.362,282.638,-60.154,284.631,-57.982L291.817,-50.13C293.754,-48.032,297.042,-47.887,299.169,-49.832L301.623,-52.078C308.148,-58.03,318.199,-57.596,324.178,-51.081L324.302,-50.945C322.325,-68.092,313.795,-83.913,300.319,-94.999Z" /></g></g></g><g id="Group 2"><g id="Group 3"><g id="Group 1"><path stroke-linejoin="round" stroke-linecap="round" stroke-width="3.722" stroke-opacity="1" stroke="#000000" fill="#7dd4c8" fill-opacity="1" d="M327.583,-51.228C328.156,-50.244,328.867,-49.348,329.696,-48.568L334.926,-43.636C335.863,-42.757,337,-42.12,338.238,-41.779L338.848,-41.613C342.447,-40.622,345.263,-37.813,346.268,-34.213L349.074,-24.081C349.411,-22.865,349.978,-21.725,350.743,-20.723L359.238,-9.566C360.297,-8.173,361.001,-6.543,361.289,-4.816L363.599,9.057C363.672,9.553,363.926,10.005,364.312,10.325C364.874,10.779,365.642,10.888,366.307,10.605C367.641,10.044,368.556,8.792,368.689,7.35C368.97,4.515,370.103,1.831,371.939,-0.345L374.399,-3.31C374.835,-3.833,375.162,-4.438,375.36,-5.09L377.892,-13.307C378.637,-15.733,380.118,-17.868,382.129,-19.414L389.653,-25.199C390.203,-25.605,390.576,-26.207,390.697,-26.881C390.819,-27.626,390.607,-28.387,390.118,-28.961L385.106,-34.865C384.806,-35.217,384.522,-35.579,384.253,-35.957L380.424,-41.302C378.305,-44.257,374.921,-46.218,371.283,-46.125C370.918,-46.114,370.558,-46.208,370.244,-46.394L362.421,-51.098C360.131,-52.466,357.293,-52.535,354.939,-51.279L350.82,-49.07C347.076,-47.062,342.42,-48.288,340.145,-51.88L336.14,-58.213C334.286,-61.145,334.345,-64.899,336.29,-67.771C338.364,-70.86,342.004,-72.507,345.689,-72.025L351.699,-71.264C353.84,-70.969,355.949,-71.981,357.062,-73.836C358.977,-77.143,362.686,-78.977,366.472,-78.488L369.097,-78.151C370.972,-77.916,372.833,-78.689,373.991,-80.185L376.306,-83.197C378.403,-85.903,378.497,-89.662,376.538,-92.47L371.552,-99.673C369.654,-102.415,367.182,-104.709,364.312,-106.404C361.349,-105.354,358.432,-104.102,355.592,-102.614C337.612,-93.185,325.006,-76.158,321.033,-56.466C323.73,-55.608,326.097,-53.796,327.583,-51.228Z" /></g></g><g id="Group 2"><g id="Group 1"><path stroke-linejoin="round" stroke-linecap="round" stroke-width="3.722" stroke-opacity="1" stroke="#000000" fill="#7dd4c8" fill-opacity="1" d="M445.432,-11.068C444.106,-10.689,442.726,-10.498,441.332,-10.522L437.483,-10.556C436.803,-10.564,436.127,-10.435,435.498,-10.177L427.54,-6.946C425.192,-5.99,422.604,-5.789,420.137,-6.372L410.904,-8.552C410.242,-8.722,409.54,-8.63,408.943,-8.298C408.29,-7.922,407.835,-7.277,407.7,-6.534L406.3,1.088C406.217,1.543,406.117,1.993,405.995,2.44L404.28,8.79C403.333,12.302,403.956,16.168,406.328,18.932C406.567,19.208,406.723,19.546,406.777,19.907L406.895,20.723C423.076,15.569,437.05,4.337,445.432,-11.068Z" /></g></g><g id="Group 1"><g id="Group 1"><path stroke-linejoin="round" stroke-linecap="round" stroke-width="3.722" stroke-opacity="1" stroke="#000000" fill="#7dd4c8" fill-opacity="1" d="M429.169,-94.999C422.18,-100.746,414.255,-104.861,405.921,-107.37C403.339,-101.966,399.677,-95.681,397.139,-93.352L394.803,-91.209C391.277,-87.972,391.035,-82.489,394.282,-78.936C395.733,-77.346,397.933,-76.696,400.026,-77.15L406.854,-78.704C414.628,-80.465,419.758,-70.817,413.954,-65.364C411.847,-63.362,411.488,-60.154,413.481,-57.982L420.667,-50.13C422.604,-48.032,425.893,-47.887,428.02,-49.832L430.473,-52.078C436.998,-58.03,447.049,-57.596,453.028,-51.081L453.153,-50.945C451.176,-68.092,442.645,-83.913,429.169,-94.999Z" /></g></g></g><g id="Group 1"><g id="Group 3"><g id="Group 1"><path stroke-linejoin="round" stroke-linecap="round" stroke-width="3.722" stroke-opacity="1" stroke="#000000" fill="#7dd4c8" fill-opacity="1" d="M456.433,-51.228C457.006,-50.244,457.717,-49.348,458.546,-48.568L463.776,-43.636C464.713,-42.757,465.85,-42.12,467.088,-41.779L467.698,-41.613C471.297,-40.622,474.113,-37.813,475.118,-34.213L477.924,-24.081C478.261,-22.865,478.828,-21.725,479.593,-20.723L488.088,-9.566C489.147,-8.173,489.851,-6.543,490.139,-4.816L492.449,9.057C492.522,9.553,492.776,10.005,493.162,10.325C493.724,10.779,494.492,10.888,495.157,10.605C496.491,10.044,497.406,8.792,497.539,7.35C497.82,4.515,498.953,1.831,500.789,-0.345L503.249,-3.31C503.685,-3.833,504.012,-4.438,504.21,-5.09L506.742,-13.307C507.487,-15.733,508.968,-17.868,510.979,-19.414L518.503,-25.199C519.053,-25.605,519.426,-26.207,519.547,-26.881C519.669,-27.626,519.457,-28.387,518.968,-28.961L513.956,-34.865C513.656,-35.217,513.372,-35.579,513.103,-35.957L509.274,-41.302C507.155,-44.257,503.771,-46.218,500.133,-46.125C499.768,-46.114,499.408,-46.208,499.094,-46.394L491.271,-51.098C488.981,-52.466,486.143,-52.535,483.789,-51.279L479.67,-49.07C475.926,-47.062,471.27,-48.288,468.995,-51.88L464.99,-58.213C463.136,-61.145,463.195,-64.899,465.14,-67.771C467.214,-70.86,470.854,-72.507,474.539,-72.025L480.549,-71.264C482.69,-70.969,484.799,-71.981,485.912,-73.836C487.827,-77.143,491.536,-78.977,495.322,-78.488L497.947,-78.151C499.822,-77.916,501.683,-78.689,502.841,-80.185L505.156,-83.197C507.253,-85.903,507.347,-89.662,505.388,-92.47L500.402,-99.673C498.504,-102.415,496.032,-104.709,493.162,-106.404C490.199,-105.354,487.282,-104.102,484.442,-102.614C466.462,-93.185,453.856,-76.158,449.883,-56.466C452.58,-55.608,454.947,-53.796,456.433,-51.228Z" /></g></g><g id="Group 2"><g id="Group 1"><path stroke-linejoin="round" stroke-linecap="round" stroke-width="3.722" stroke-opacity="1" stroke="#000000" fill="#7dd4c8" fill-opacity="1" d="M574.282,-11.068C572.956,-10.689,571.576,-10.498,570.182,-10.522L566.333,-10.556C565.653,-10.564,564.978,-10.435,564.349,-10.177L556.39,-6.946C554.041,-5.99,551.454,-5.789,548.987,-6.372L539.754,-8.552C539.092,-8.722,538.39,-8.63,537.793,-8.298C537.14,-7.922,536.685,-7.277,536.55,-6.534L535.151,1.088C535.068,1.543,534.967,1.993,534.845,2.44L533.13,8.79C532.183,12.302,532.806,16.168,535.178,18.932C535.417,19.208,535.573,19.546,535.627,19.907L535.745,20.723C551.926,15.569,565.9,4.337,574.282,-11.068Z" /></g></g><g id="Group 1"><g id="Group 1"><path stroke-linejoin="round" stroke-linecap="round" stroke-width="3.722" stroke-opacity="1" stroke="#000000" fill="#7dd4c8" fill-opacity="1" d="M558.019,-94.999C551.03,-100.746,543.105,-104.861,534.771,-107.37C532.189,-101.966,528.527,-95.681,525.989,-93.352L523.654,-91.209C520.128,-87.972,519.885,-82.489,523.132,-78.936C524.583,-77.346,526.783,-76.696,528.876,-77.15L535.704,-78.704C543.478,-80.465,548.608,-70.817,542.804,-65.364C540.697,-63.362,540.338,-60.154,542.331,-57.982L549.517,-50.13C551.454,-48.032,554.743,-47.887,556.87,-49.832L559.323,-52.078C565.848,-58.03,575.899,-57.596,581.878,-51.081L582.003,-50.945C580.026,-68.092,571.495,-83.913,558.019,-94.999Z" /></g></g></g></g></g></g></g></g></g><g id="Null 162"><g transform="translate(200,200)"><animateTransform repeatCount="indefinite" type="translate" attributeName="transform" dur="1s" begin="0s" calcMode="spline" values="200 200; 200 210; 200 200" keyTimes="0; 0.5; 1" keySplines="0.333 0 0.667 1; 0.333 0 0.667 1" fill="freeze" /><g transform="scale(1,1) translate(-50,-50)"><g transform="matrix(1,0,0,1,50,20)" id="Layer 6"><g id="Group 1"><path fill="#000000" fill-opacity="1" d="M38.393,-90.363C19.871,-105.595,-5.948,-108.275,-27.185,-97.15C-45.091,-87.76,-57.048,-69.925,-58.935,-49.757C-59.089,-47.925,-59.185,-46.075,-59.185,-44.185C-59.185,-17.462,-41.452,6.023,-15.768,13.311C15.943,22.315,48.944,3.863,57.935,-27.912C59.417,-33.214,60.188,-38.69,60.169,-44.185C60.188,-62.078,52.198,-79.006,38.393,-90.363Z" /></g></g></g></g></g><g id="Null 162"><g transform="translate(200,200)"><animateTransform repeatCount="indefinite" type="translate" attributeName="transform" dur="1s" begin="0s" calcMode="spline" values="200 200; 200 210; 200 200" keyTimes="0; 0.5; 1" keySplines="0.333 0 0.667 1; 0.333 0 0.667 1" fill="freeze" /><g transform="scale(1,1) translate(-50,-50)"><g transform="matrix(1,0,0,1,50,20)" id="Outline"><g id="Group 1"><path stroke-linejoin="round" stroke-linecap="round" stroke-width="3.317" stroke-opacity="1" stroke="#000000" d="M60.169,-44.185C60.188,-38.69,59.417,-33.214,57.935,-27.912C48.944,3.863,15.943,22.315,-15.768,13.311C-41.452,6.023,-59.185,-17.462,-59.185,-44.185C-59.185,-46.075,-59.089,-47.925,-58.935,-49.757C-57.048,-69.925,-45.091,-87.76,-27.185,-97.15C-5.948,-108.275,19.871,-105.595,38.393,-90.363C52.198,-79.006,60.188,-62.078,60.169,-44.185Z" /></g></g></g></g></g><g opacity="0" id="Null 162"><g transform="translate(200,200)"><animateTransform repeatCount="indefinite" type="translate" attributeName="transform" dur="1s" begin="0s" calcMode="spline" values="200 200; 200 210; 200 200" keyTimes="0; 0.5; 1" keySplines="0.333 0 0.667 1; 0.333 0 0.667 1" fill="freeze" /><g transform="scale(1,1) translate(-50,-50)" /></g></g></g><radialGradient id="null" gradientUnits="userSpaceOnUse" spreadMethod="pad" cx="0" cy="0" r="100" fy="0" fx="0"><stop offset="0.1%" stop-color="#c2c2c2" /><stop offset="46.9%" stop-color="#e0e0e0" /><stop offset="99.8%" stop-color="#ffffff" /></radialGradient></defs><g transform="matrix(1.5,0,0,1.5,-100,6)" id="Files"><use clip-path="url(#cp-400-400)" height="400" width="400" y="0" x="0" xlink:href="#comp_0" href="#comp_0" /></g><g opacity="0" id="Shape Layer 1"><animate repeatCount="indefinite" attributeName="opacity" dur="0.84s" begin="0.48s" calcMode="spline" values="0; 1; 1; 0" keyTimes="0; 0.143; 0.667; 1" keySplines="0 0 1 1; 0 0 1 1; 0 0 1 1" fill="freeze" /><g transform="translate(148.75,195.75)"><animateTransform repeatCount="indefinite" type="translate" attributeName="transform" dur="0.56s" begin="0.48s" calcMode="spline" values="148.75 195.75; 159.416 196.78; 255.25 194.75; 255 194.75" keyTimes="0; 0.357; 0.857; 1" keySplines="0.199 0.227 0.833 0.833; 0 0 1 1; 0.167 0.167 1 0.999" fill="freeze" /><g transform="rotate(-5) scale(1.22,0.935) translate(10.5,5.5)"><g id="Shape 1"><path stroke-linejoin="round" stroke-linecap="round" stroke-width="6" stroke-opacity="1" stroke="#ffdf31" d="M-52.5,-5.5C-52.5,-5.5,-47.458,1.988,-31.648,3.058C-3.46,4.965,31.5,-5.5,31.5,-5.5" /></g></g></g></g><g opacity="0" visibility="hidden" id="Shape Layer 2"><animate repeatCount="indefinite" begin="0.4s" calcMode="discrete" fill="freeze" dur="4.8s" values="visible; visible" keyTimes="0; 1" attributeName="visibility" /><animate repeatCount="indefinite" attributeName="opacity" dur="0.84s" begin="0.88s" calcMode="spline" values="0; 1; 1; 0" keyTimes="0; 0.143; 0.667; 1" keySplines="0 0 1 1; 0 0 1 1; 0 0 1 1" fill="freeze" /><g transform="translate(148.75,205.5)"><animateTransform repeatCount="indefinite" type="translate" attributeName="transform" dur="0.48s" begin="0.88s" calcMode="spline" values="148.75 205.5; 159.416 206.53; 255.25 204.5; 255 204.5" keyTimes="0; 0.417; 0.833; 1" keySplines="0.199 0.227 0.833 0.833; 0 0 1 1; 0.167 0.167 1 0.999" fill="freeze" /><g transform="rotate(-4) scale(1.22,0.935) translate(10.5,5.5)"><g id="Shape 1"><path stroke-linejoin="miter" stroke-linecap="round" stroke-width="6" stroke-opacity="1" stroke="#ffdf31" d="M-52.5,-5.5C-52.5,-5.5,-47.458,1.988,-31.648,3.058C-3.46,4.965,31.5,-5.5,31.5,-5.5" /></g></g></g></g><g id="Shadow"><g transform="translate(198.25,318.75)"><g transform="scale(0.79,0.79)"><animateTransform repeatCount="indefinite" type="scale" attributeName="transform" dur="3.04s" begin="0s" calcMode="spline" values="0.79 0.79; 0.9 0.9; 0.79 0.79; 0.9 0.9; 0.79 0.79; 0.9 0.9; 0.79 0.79" keyTimes="0; 0.197; 0.368; 0.5; 0.697; 0.829; 1" keySplines="0 0 1 1; 0 0 1 1; 0 0 1 1; 0 0 1 1; 0 0 1 1; 0 0 1 1" fill="freeze" /><g transform="translate(-8.75,-122.75)"><g id="Ellipse 1" transform="matrix(1,0,0,1,8.75,122.75)"><ellipse ry="7.25" rx="69.75" cy="0" cx="0" stroke-linejoin="miter" stroke-linecap="butt" stroke-width="0" stroke-opacity="1" stroke="#ffdf31" fill="url(#null)" /></g></g></g></g></g></svg>